<?xml version="1.0" encoding="UTF-8" standalone="no" ?>
<!DOCTYPE svg PUBLIC "-//W3C//DTD SVG 1.1//EN" "http://www.w3.org/Graphics/SVG/1.1/DTD/svg11.dtd">
<svg xmlns="http://www.w3.org/2000/svg" xmlns:xlink="http://www.w3.org/1999/xlink" version="1.1" width="1280" height="1024" viewBox="0 0 1280 1024" xml:space="preserve">
<desc>Created with Fabric.js 5.3.0</desc>
<defs>
</defs>
<g transform="matrix(1 0 0 1 640 512)" id="background-logo"  >
<rect style="stroke: none; stroke-width: 0; stroke-dasharray: none; stroke-linecap: butt; stroke-dashoffset: 0; stroke-linejoin: miter; stroke-miterlimit: 4; fill: rgb(255,255,255); fill-opacity: 0; fill-rule: nonzero; opacity: 1;"  paint-order="stroke"  x="-640" y="-512" rx="0" ry="0" width="1280" height="1024" />
</g>
<g transform="matrix(1.9211538461538462 0 0 1.9211538461538462 640 407.7318434959938)" id="logo-logo"  >
<g style=""  paint-order="stroke"   >
		<g transform="matrix(0.27121810485512776 0 0 0.27121810485512776 0.003594662611590138 -0.23962886638653913)"  >
<linearGradient id="SVGID_501289_520502" gradientUnits="userSpaceOnUse" gradientTransform="matrix(1 0 0 -1 0 1002)"  x1="625.5148808" y1="656.7517815" x2="368.222879" y2="382.3066847">
<stop offset="0%" style="stop-color:rgb(240,255,254);stop-opacity: 1"/>
<stop offset="100%" style="stop-color:rgb(175,198,196);stop-opacity: 1"/>
</linearGradient>
<path style="stroke: none; stroke-width: 1; stroke-dasharray: none; stroke-linecap: butt; stroke-dashoffset: 0; stroke-linejoin: miter; stroke-miterlimit: 4; fill: url(#SVGID_501289_520502); fill-rule: nonzero; opacity: 1;"  paint-order="stroke"  transform=" translate(-506.74166132933306, -514.2846917499998)" d="M 240.6456801 817.5666742 C 243.2491957 812.297143 246.83122699999998 806.5979242 250.30583629999998 801.0666742 C 253.43083629999998 796.0930414 256.6613051 790.9514398 259.2501722 786.0276117 C 281.723805 743.2893305 292.7443128 697.3117914 294.9845472 636.9475335999999 C 295.1407972 632.7473382999999 295.261891 618.7600335999999 294.8351331 605.4563226999999 C 293.9562269 578.0676507999999 291.6124769 576.1272210999998 289.9015393 574.7102288999998 C 289.57732050000004 574.4416741999999 289.2130627 574.2258538999998 288.82146120000004 574.0715569999999 C 256.61052370000004 561.3342522999999 230.24919560000004 541.3420647999999 210.46892210000004 514.6506585999998 C 191.23064090000005 488.6916741999998 179.09782830000003 457.66335389999983 174.40837520000005 422.4275140999998 C 165.54997680000005 355.8650140999998 181.14177360000005 288.11647889999983 218.31364860000005 231.66237739999983 C 255.16911740000006 175.68874459999984 310.85759390000004 134.18239689999984 375.12126580000006 114.78981879999982 C 411.6730236000001 103.75954539999982 449.3458752000001 98.16677189999982 487.0948986000001 98.16677189999982 C 549.9523205 98.16677189999982 608.2960705 113.74196719999982 655.8165783000001 143.20876409999983 C 680.9327892000001 158.78298289999984 702.6866955 178.08571719999983 720.4718517000001 200.5798578999998 C 739.3136486000001 224.4089594999998 753.7579845000001 251.91774849999982 763.4054455000002 282.3420648999998 C 770.0167736000002 303.1970453999998 777.0245861000002 333.5803460999998 775.0109143000002 350.5725336999998 C 774.5822034000001 354.19509229999977 773.0841565000002 358.29665479999977 771.4982190000002 362.6389398999998 C 769.5636487000002 367.9343500999998 767.5636487000002 373.4104242999998 767.3214612000002 378.7043695999998 C 766.8702893000002 388.6096429999998 777.4855237000002 403.5632562999998 789.3536878000002 419.30886179999976 C 791.0948987000003 421.6184320999998 792.5988050000002 423.6130609999998 793.7638440000002 425.24001409999977 C 796.4816174000002 429.03542429999976 800.6466565000002 434.34987739999974 805.4698987000002 440.50417429999976 C 818.9728284000001 457.73415479999977 839.3800549000001 483.77272899999974 841.0753675000002 493.9924554999998 C 843.4698987000002 508.4299554999998 835.3917737000002 513.7336663999997 825.1632581000002 520.4475335999998 C 821.4025159000003 522.9162835999998 817.5138440000003 525.4690179999998 814.0402112000003 528.6194085999998 C 801.1075940000003 540.3459710999998 807.1691174000002 551.3010491999999 812.0402112000003 560.1028069999998 C 813.6827893000003 563.0725335999997 815.3820081000002 566.1428460999997 816.5011487000003 569.2649163999997 C 820.3478284000003 579.9944085999997 815.4933362000003 584.8928460999997 807.4503675000003 593.0090569999998 C 806.7404066000003 593.7248772999998 806.0177503000003 594.4533928999998 805.2892347000003 595.2004631999997 C 803.7755628000003 596.7502678999997 803.7716566000003 599.2239006999997 805.2794691000003 600.7785881999997 C 811.9728285000002 607.6819084999997 814.8712660000002 616.8508537999998 813.0333753000002 625.3039787999998 C 811.3146253000002 633.2141349999997 805.8497815000002 639.3371818999998 797.6476331000002 642.5442131999997 C 795.8790784000003 643.2365959999997 794.8400159000003 645.0764397999997 795.1622815000003 646.9485100999997 C 796.1407971000003 652.6262444999996 797.5206799000003 658.2922600999997 798.8546643000003 663.7727288999997 C 803.5656018000003 683.1184319999998 808.0148205000003 701.3908929999998 794.7413831000003 718.3918694999998 C 783.4279065000004 732.8811272999998 767.7687269000004 739.6301506999997 745.4669690000003 739.6301506999997 L 745.4611096000003 739.6301506999997 C 729.0968518000003 739.6291740999998 711.4855237000004 736.0158928999997 694.4532971000003 732.5207756999997 C 680.7325940000003 729.7053459999997 667.7726330000003 727.0461662999998 655.9113049000003 726.3117912999998 C 654.8781018000003 726.2473381999997 653.8439221000003 726.2151115999998 652.8380627000004 726.2151115999998 C 623.2482189000003 726.2151115999998 612.1857189000003 753.1828849999997 606.4376721000003 773.4680412999998 C 599.4269299000003 798.2092521999998 591.8644299000003 830.9485100999998 586.2072033000003 861.0461662999998 C 582.0402111000003 883.2151115999998 578.5626721000003 906.8430412999998 580.7101330000003 930.4026115999998 L 240.6456799000003 817.5666740999998 Z" stroke-linecap="round" />
</g>
		<g transform="matrix(0.27121810485512776 0 0 0.27121810485512776 -5.795850608935439 0.1972370656603175)"  >
<path style="stroke: none; stroke-width: 1; stroke-dasharray: none; stroke-linecap: butt; stroke-dashoffset: 0; stroke-linejoin: miter; stroke-miterlimit: 4; fill: rgb(66,211,220); fill-rule: nonzero; opacity: 1;"  paint-order="stroke"  transform=" translate(-485.3587036, -515.8954468)" d="M 328.4794312 324.4595337 C 328.4794312 332.5853882 321.89227300000005 339.1727295 313.76629640000004 339.1727295 C 305.64031980000004 339.1727295 299.05316160000007 332.5853882 299.05316160000007 324.4595337 C 299.05316160000007 316.3336792 305.64031980000004 309.74639890000003 313.76629640000004 309.74639890000003 C 321.89227300000005 309.74639890000003 328.4794312 316.3336792 328.4794312 324.4595337 Z M 410.7926636 258.3022461 C 410.7926636 250.1763916 404.20550540000005 243.5890503 396.07952880000005 243.5890503 C 387.95355220000005 243.5890503 381.36639400000007 250.1763916 381.36639400000007 258.3022461 C 381.36639400000007 266.4281006 387.95355220000005 273.01538089999997 396.07952880000005 273.01538089999997 C 404.20550540000005 273.01538089999997 410.7926636 266.4281006 410.7926636 258.3022461 Z M 588.4113159 282.2661743 C 580.2853393 282.2661743 573.6981810999999 288.85345459999996 573.6981810999999 296.97930909999997 C 573.6981810999999 305.10516359999997 580.2853392999999 311.69250489999996 588.4113159 311.69250489999996 C 596.5372925 311.69250489999996 603.1246947999999 305.10516359999997 603.1246947999999 296.97930909999997 C 603.1246947999999 288.85345459999996 596.5372924999999 282.2661743 588.4113159 282.2661743 Z M 552.9537964 600.0061646 C 561.0797729999999 600.0061646 567.6669312 593.4188233 567.6669312 585.2929688 C 567.6669312 577.1671143000001 561.079773 570.579773 552.9537964 570.579773 C 544.8278197999999 570.579773 538.2406616 577.1671143000001 538.2406616 585.2929688 C 538.2406616 593.4188233 544.8278197999999 600.0061646 552.9537964 600.0061646 Z M 490.3505249 429.7983398 C 490.3505249 403.8080444 469.281189 382.73870850000003 443.29095459999996 382.73870850000003 C 417.30072019999994 382.73870850000003 396.23138429999995 403.8080444 396.23138429999995 429.7983398 C 396.23138429999995 455.7886962 417.30072019999994 476.8579711 443.29095459999996 476.8579711 C 469.281189 476.8579711 490.3505249 455.7886962 490.3505249 429.7983398 Z M 656.9508667 610.4020996 C 648.8248901000001 610.4020996 642.2374878 616.9894409000001 642.2374878 625.1152954 C 642.2374878 633.2411499 648.8248901000001 639.8284912 656.9508667 639.8284912 C 665.0768433 639.8284912 671.6642456 633.2411499 671.6642456 625.1152954 C 671.6642456 616.9894409000001 665.0768433 610.4020996 656.9508667 610.4020996 Z M 555.3949585 715.6351318 C 547.2689819000001 715.6351318 540.6818237 722.2224731 540.6818237 730.3483276 C 540.6818237 738.4741820999999 547.2689819 745.0615233999999 555.3949585 745.0615233999999 C 563.5209351000001 745.0615233999999 570.1080933000001 738.4741820999999 570.1080933000001 730.3483276 C 570.1080933000001 722.2224731 563.5209351000001 715.6351318 555.3949585 715.6351318 Z M 485.3014526 786.1884766 C 477.175476 786.1884766 470.5883178 792.7758179 470.5883178 800.9016723999999 C 470.5883178 809.0275268999999 477.175476 815.6148681999999 485.3014526 815.6148681999999 C 493.4274292 815.6148681999999 500.0145874 809.0275268999999 500.0145874 800.9016723999999 C 500.0145874 792.7758179 493.4274292 786.1884766 485.3014526 786.1884766 Z M 351.3048706 742.1914062 C 343.178894 742.1914062 336.59173580000004 748.7787475 336.59173580000004 756.904602 C 336.59173580000004 765.0304564999999 343.178894 771.6177978 351.3048706 771.6177978 C 359.4308472 771.6177978 366.0180054 765.0304564999999 366.0180054 756.904602 C 366.0180054 748.7787475 359.4308472 742.1914062 351.3048706 742.1914062 Z M 622.2438354 216.1760254 C 614.1178588 216.1760254 607.5304565 222.76336669999998 607.5304565 230.88922119999998 C 607.5304565 239.01507569999998 614.1178588 245.60241699999997 622.2438354 245.60241699999997 C 630.3698119999999 245.60241699999997 636.9572142999999 239.01507569999998 636.9572142999999 230.88922119999998 C 636.9572142999999 222.76336669999998 630.3698119999999 216.1760254 622.2438354 216.1760254 Z" stroke-linecap="round" />
</g>
		<g transform="matrix(0.27121810485512776 0 0 0.27121810485512776 0 0)"  >
<path style="stroke: none; stroke-width: 1; stroke-dasharray: none; stroke-linecap: butt; stroke-dashoffset: 0; stroke-linejoin: miter; stroke-miterlimit: 4; fill: rgb(0,28,73); fill-rule: nonzero; opacity: 1;"  paint-order="stroke"  transform=" translate(-506.7284075584851, -515.1682200325771)" d="M 816.7272339 531.5827637 C 829.2208862 520.253479 848.8317261 516.3054199 845.0216675 493.338501 C 842.5421753 478.3933106 807.7413941 437.8880615 797.0158081000001 422.9111939 C 789.9640503 413.0640259 770.8078003 390.0653077 771.3180542000001 378.8869629 C 771.7194214000001 370.102478 777.9464722000001 359.79016110000003 778.9830933000001 351.0430298 C 781.2257691000001 332.1175537 773.0866089000001 299.6415405 767.2179566000001 281.13330080000003 C 714.2492066000001 114.07806400000004 529.7540894000001 63.94818120000002 373.9657593000001 110.96032720000002 C 240.0348511000001 151.37658700000003 151.75653080000012 282.5517579 170.44329840000012 422.95544440000003 C 179.89031990000012 493.937317 220.1911011000001 551.2332154000001 287.3512574000001 577.7914429 C 291.5009156000001 581.2274781 291.28411870000014 628.802063 290.98724370000014 636.7987671 C 289.03314210000013 689.4475708 280.29803470000013 737.4054566 255.70989990000015 784.166626 C 249.97186280000017 795.0787353999999 241.02655030000017 807.0390625 236.13275150000015 817.7403565 C 235.42645270000014 819.2851562999999 235.29071050000016 819.3964234 236.72674560000016 820.4802247 L 585.3871460000001 936.1694337 C 582.0431519000001 911.505066 585.5546265000002 886.1715089 590.1386108000002 861.7852174 C 595.3141479000002 834.2523195 602.6661987000001 801.4500734 610.2858276000002 774.5592042 C 616.8156128000002 751.5146484999999 628.2711792000002 728.6062622999999 655.6642456000002 730.3038330999999 C 699.8370972000002 733.0412598999999 764.1666870000001 764.0488281999999 797.8932495000001 720.853943 C 816.3390503000002 697.2298585 803.5309448000002 671.9628908 799.1041870000001 646.2702028 L 799.1046753000002 646.2702028 C 819.9474487000002 638.1198122 823.4230347000001 613.7460329 808.1520386000002 597.9943239 C 817.2946167000002 588.6268923 825.3678589000002 582.142151 820.2672730000002 567.9152834 C 815.5050660000002 554.6317751 802.4630738000002 544.5178225 816.7272339000002 531.5827639 Z M 350.7160034 153.5739136 L 350.7160034 193.9771118 L 293.7086792 255.41229249999998 L 235.59442140000002 255.41229249999998 C 261.6324463 210.3840943 302.5302735 173.61303709999999 350.71600340000003 153.57391359999997 Z M 200.166687 397.0947876 C 217.3222046 396.92852780000004 234.5228882 397.31829830000004 251.6908569 397.1462402 C 264.6893921 397.01599120000003 278.3097534 394.7116699 291.4848022 396.0039062 C 299.8041381 396.81988520000004 308.4332885 400.6873779 306.22406 410.68920890000004 C 305.4486694 414.19934070000005 299.0612182 419.2394408 295.9227905 419.2394408 L 201.27948000000004 419.2394408 L 200.16668700000002 397.0947875 Z M 216.2218628 465.7323608 C 214.3461304 465.66644279999997 213.9938355 464.555542 213.2015991 463.21783439999996 C 212.28948970000002 461.67779529999996 206.00164790000002 443.2058105 206.8182983 442.49249259999993 L 206.8185424 442.49249259999993 C 217.6764526 442.84252919999994 228.7230834 441.49621569999994 239.42352290000002 443.6377562999999 C 258.9552612 445.69732659999994 284.866394 440.6939696999999 303.6085815 443.6552123999999 C 315.03802490000004 445.4609984999999 315.6674194 464.0667724999999 301.4838256 465.7570189999999 L 216.22186269999997 465.7323607999999 Z M 387.2435913 843.7756348 C 387.05804439999997 845.2543335 387.8444214 845.7873536000001 385.7199097 845.2941895 L 276.5463257 806.6621705 C 275.4157105 805.4760743 289.4237671 781.2460938 291.1376343 777.5299684 C 314.1791382 727.5662843 318.5358277 670.1292116000001 319.7682495 615.7669679 C 320.0946655 601.3696901000001 321.73577880000005 570.2475587 317.8397827 557.8293458 C 315.2238159 549.4909669000001 293.4396362 524.6307374 285.3771362 521.6617433 C 274.01898189999997 517.4792482 260.78289789999997 523.9096681 252.243103 520.4803468 C 249.7748413 519.4892579 243.24920649999999 512.8638307 241.1591186 510.5324708 L 226.7394409 488.9766847 L 278.2120971 488.9766847 C 280.54071039999997 488.9766847 287.10491939999997 491.8814699 289.4909057 493.19494640000005 C 297.2772827 497.4811402 330.7160034 531.2403566 335.4337768 539.1281129 C 343.6808471 552.9166261 340.814392 560.3353883 340.70843499999995 574.7188722000001 C 340.33074949999997 626.0186159000001 341.08026119999994 677.3355104000001 340.76141349999995 728.6364137 C 340.29266349999995 731.1033937000001 332.90716549999996 734.9592286000001 330.22723379999996 738.0272828000001 C 317.79656969999996 752.2576905000001 321.8536986 776.5182496000001 339.9796752 783.6435548000001 C 368.4916381 794.8515016 390.96844469999996 762.1798097000001 372.85052479999996 738.5963746000001 C 370.6627807 735.7485963000001 361.7858275 730.4448853000001 361.7858275 729.7361451000002 L 361.7858275 661.6593018000002 L 361.78631579999995 661.6593018000002 C 366.4188842 663.9509888000002 380.5045775 680.5556031000002 383.6124877 681.4279786000002 C 390.47454819999996 683.3541261000001 393.40765369999997 670.5303956000001 392.7413939 665.6260377000002 C 391.11834699999997 653.6779176000002 369.5350951 643.8991090000002 369.5350951 632.3253785000002 L 369.5350951 525.5056764000002 C 376.3146361 531.0723878000002 383.34515369999997 536.5816652000002 391.49359119999997 540.0708619000002 C 392.4804076 567.1087647000002 390.38885489999996 594.4779054000002 392.57977279999994 621.3715211000002 C 400.24334699999997 628.6628419000002 408.13787829999995 635.9909669000002 416.89154039999994 641.9646607000002 L 417.07977279999994 760.6768799000002 C 407.2545774999999 779.0062256000002 388.18499739999993 794.3066406000003 386.15692119999994 816.0952759000003 C 385.30462629999994 825.2539063000003 388.23602279999994 835.8663941000003 387.24359109999995 843.7756348000003 Z M 386.1254272 497.2918701 C 327.06268309999996 447.0328369 357.00067129999996 348.1810913 434.6217651 340.9781494 C 492.4630737 335.6106567 539.434021 385.4177856 530.8468628 442.737915 C 520.5661011000001 511.3626709 439.54388430000006 542.7479857999999 386.12542730000007 497.2918701 Z M 486.9017944 809.5595703 C 475.16448970000005 811.8400879000001 474.09661860000006 794.8811645000001 482.1276245 792.4920654 C 494.13592530000005 788.9197998 498.4352417 807.3186645 486.9017944 809.5595703 Z M 355.5531616 764.4541626 C 342.3798218 771.220398 337.8942261 750.2397461 349.31658930000003 748.1731567 C 359.12298580000004 746.3989257000001 363.86517330000004 760.1848755000001 355.5531616 764.4541626 Z M 542.2167358 902.97229 L 408.4633178 854.0858764000001 C 407.3617553 852.3026733 407.8952026 815.5881957 408.7941283 812.1668090000001 C 412.484558 798.1223144 439.1146849 778.4971313000001 439.31805410000004 760.7770995000001 L 439.20843500000007 637.9231566000001 C 438.07244870000005 630.7558592 417.29632560000005 618.2532958 412.70501700000005 611.2935179000001 L 412.70501700000005 547.6445311000001 C 425.82092280000006 551.7205809000001 439.97753900000004 552.2714232000001 453.66717520000003 552.0665282000001 C 454.4918822 576.0965575000001 452.56024160000004 600.6375731 453.61590570000004 624.6224974000002 C 454.36834710000005 641.7128905000002 455.82342520000003 657.0490721000001 465.14178460000005 671.7645262000002 C 467.5014037 675.4909666000002 473.14666740000007 680.5892332000002 473.64520260000006 684.2929075000002 L 473.5665893000001 772.8867796000002 C 472.8886108000001 776.3466185000002 467.6718139000001 778.0149534000002 464.9140014000001 780.8382567000002 C 452.66766350000006 793.3753050000003 454.45428460000005 816.4538573000002 469.91253660000007 825.2858275000002 C 499.2848511000001 842.0674437000002 527.1679077000001 806.2202757000002 506.25213620000005 782.3048705000002 C 504.14471430000003 779.8953856000002 495.72528070000004 774.6837157000002 495.72528070000004 774.0137328000002 L 495.72528070000004 699.8487548000002 C 495.72528070000004 696.6560058000001 513.3827514000001 699.0983886000001 515.1124877000001 702.6004027000001 C 517.1588744000001 706.7435912000001 514.9345092000001 726.4889525000001 515.6432494000001 733.0639647000002 C 517.5390014000001 750.6522826000001 542.2167357000001 762.2164916000002 542.2167357000001 770.6929320000002 L 542.2167357000001 902.9722899000002 Z M 551.8600464 738.9138184 C 546.1339722 737.2125854999999 543.7374877999999 723.6089478 551.8588257 721.6776123 C 569.1539917 717.5645751999999 567.3463745 743.5148925999999 551.8600464 738.9138184 Z M 535.3366089 672.4140625 C 511.1305542 664.9909668 485.7631226 647.3156738 485.7631226 619.0421143 L 485.7631226 567.569397 C 487.4718628 565.6125489 504.187439 582.8179322 506.48651129999996 583.9284668 C 510.70111089999995 585.9641113 522.0790406 586.1642456000001 524.5199586 588.0338135000001 C 525.1654664 588.5281372000001 528.2091676 599.2208252 530.225525 602.2532349 C 542.0138551 619.9823609 570.1510621 617.6029663 578.4982301 597.7623291000001 C 590.3561403 569.5770264000001 558.0026246 543.2061157 534.3981324 563.6455688000001 C 533.1307984 564.7428588000001 532.3549195 567.5278320000001 531.5348512 567.6485595000001 C 530.7789918000001 567.7598876000002 517.6510621000001 565.4999389000002 516.4672242 565.0923461000001 C 512.1620484 563.6100463000001 496.57757580000003 545.1359252000001 491.3190308 541.5562133000001 C 505.220398 534.7854003000001 518.8153687 526.8321532000001 530.0673218000001 516.1231689000001 C 532.2201538 514.0742797000001 537.9757691000001 505.2302856000001 540.4059448 505.6587524000001 L 589.8300171000001 547.076538 C 594.2084351000001 551.3045043000001 596.8700562 553.8580321000001 597.5673218000001 560.3709716000001 C 600.7443238000001 590.0472411000001 592.9955445 623.4616698000001 598.0612183000001 652.8601073000001 C 600.9469605 669.6077269000001 618.4210816000001 680.8961791 627.4620972 694.3032836000001 C 597.0448609 686.6904296000001 565.3563843000001 681.6199950000001 535.3366089 672.4140624000001 Z M 550.7704468 576.6421509 C 565.7274779999999 573.390625 564.7372436999999 598.3571167 549.9091186999999 593.642273 C 542.1669311999999 591.1804810000001 542.6688843 578.4033814000001 550.7704468 576.6421509 Z M 812.2584839 502.7600708 C 807.1935425 505.6552734 795.7330933 503.9404297 788.2042847 506.380127 C 778.0997925 509.654419 772.2868042 519.5330811 760.8986206 517.6901856000001 C 752.3190308 516.3018799 750.4718627999999 505.74981690000004 751.6959839 498.64624030000004 C 752.3502808 494.8496094 760.1290894 484.47589120000004 754.1901245 484.51019290000005 C 751.2199097 484.52734380000004 741.3956909 498.29217530000005 740.138855 501.4855347000001 C 736.0245972 511.9389649000001 739.1261597 521.7646485 746.951355 529.4298096000001 C 761.3488159000001 543.5323487000001 772.2970581000001 526.9464722000001 787.9528198 527.7255249000001 C 780.175476 542.4902344000001 789.5089721 557.8955078000001 794.5944214 571.9913940000001 C 779.9904175 572.4353637000002 748.6769409 588.7761230000001 740.9699097 600.8288574000002 C 731.6373902 615.4230957000002 757.3527222 604.7744751000001 762.064148 604.2175903000002 C 771.9103394 603.0538330000002 789.8517457 604.3845825000002 792.9830933000001 616.2463379000002 C 797.0260621000001 631.5604248000002 765.6788941000001 622.3829956000002 762.6574097 633.6834107000002 C 761.5255738 637.9170533000002 774.7545777 660.9033814000002 776.9244995 667.7111207000002 C 786.3571167 697.3037110000001 772.3654175 717.6050416000002 740.8668823 715.9444581000001 C 716.2828979000001 714.6484376000001 687.5553589000001 704.8530274000001 662.9567261000001 700.8719483000001 C 648.4152222000001 684.7938843000001 632.7750855 669.5499268000001 619.93573 652.0167237000001 C 618.0831909000001 619.8712769000001 622.0866089 585.7286378000001 618.4762573 553.8517457 C 617.416687 544.4964601 612.9533081000001 538.8984986 606.4347534000001 532.6848756 C 591.0350952000001 518.0063478000001 570.7538452000001 505.38458260000004 555.4913940000001 490.6524049000001 C 554.3912963000001 489.5905153000001 552.1930542000001 488.1245729000001 552.3497924000002 486.4110719000001 C 552.4877319000002 484.90545670000006 556.7894897000002 476.8773805000001 557.7311401000002 474.0505983000001 C 559.5089721000002 468.7141115000001 560.5023803000001 463.1459352000001 562.6828003000002 457.9932253000001 L 631.2916870000001 511.1485598000001 C 637.6945190000001 516.9118655000001 643.9635620000001 523.7086794 645.1652222000001 532.6972659 L 646.2760620000001 598.0173953000001 C 645.7409058000002 600.8330691000001 639.9098511000001 603.1168216000001 637.3668823000002 605.7123416000001 C 623.4440307000002 619.9218143 628.7609253000002 646.6016238000001 648.2384643000001 652.4946292000001 C 679.6759643000001 662.0061038000001 698.8078002000002 623.6632083000001 673.3932495000001 601.8801883000001 C 671.2448120000001 600.0386356000001 667.6906128000002 600.0078128000001 667.2960815000001 596.9078372000001 C 665.0133667000001 573.5336307000001 671.6398315000001 542.2359622000001 664.2902221000002 520.2139285000002 C 655.2321166000002 493.0722049000002 595.1063842000002 459.30352810000016 572.6908569000002 438.02380400000015 C 562.2108764000002 428.07482940000017 563.8900757000002 406.45062280000013 559.1217651000002 391.81817660000013 C 555.9581909000002 382.10955840000014 544.9738159000002 365.50543250000015 543.5729370000001 358.6617435000001 C 541.0636597000001 346.4027713000001 546.4640503000002 318.5659793000001 542.3048706000002 309.0104373000001 C 538.9999390000002 301.41790800000007 504.0372925000002 268.0082400000001 495.7404175000002 260.37799100000007 C 489.6434937000002 254.77105740000007 481.7101441000002 246.21569850000006 473.6459351000002 244.83642610000007 C 457.4611206000002 242.06817660000007 436.80242920000023 245.85919220000008 420.1273804000002 244.36267120000008 C 401.8890992000002 214.34924350000009 358.8419800000002 235.64752230000008 369.4733277000002 268.20129420000006 C 377.8927613000002 293.98181180000006 415.8512574000002 292.23547390000004 423.3417359000002 266.41064480000006 L 469.48504640000016 266.70837430000006 C 474.87591550000013 273.34112580000004 522.2914429000001 314.27429230000007 522.2914429000001 317.95434600000004 L 522.2914429000001 336.21887240000007 L 496.47674560000013 319.41644320000006 C 438.79681400000015 291.66296420000003 365.60150150000015 312.80700720000004 337.79803470000013 371.68487580000004 L 200.17034920000012 372.74279820000004 C 202.4425660000001 362.3457035 201.5211793000001 346.72760040000003 204.7855836000001 336.9581302 C 205.08490000000012 336.0626834 205.4269410000001 335.47168000000005 206.4103395000001 335.2620853 L 285.9645387000001 335.1073612 C 290.3114625000001 338.54577670000003 292.5143434000001 344.0432743 297.6774293000001 347.7472538 C 311.1000367000001 357.3767704 331.30975350000006 353.1635136 338.7382203000001 338.0777592 C 353.68573010000006 307.7225346 315.3954469000001 279.5730595 290.9376832000001 307.9882817 C 290.0592652000001 309.0088505 287.8781129000001 314.08007860000004 287.0670777000001 314.08007860000004 L 210.1347047000001 314.08007860000004 L 223.5946656000001 277.73278860000005 L 294.8168336000001 277.55218560000003 C 298.8746949000001 277.31073050000003 302.3471070000001 275.13293510000005 305.3424684000001 272.5805669 C 322.9257204000001 252.0991826 346.94598400000007 233.17590380000001 364.0285036000001 212.8240361 C 368.3458864000001 207.6803593 371.1691286000001 204.3963017 371.7931520000001 197.342957 C 373.3058473000001 180.2424321 370.4801637000001 161.0466313 371.8612672000001 143.72100880000002 C 380.9276734000001 142.31396530000004 392.0270387000001 135.99444630000002 401.0673219000001 135.8283086 C 403.6105348000001 135.7816167 402.0629274000001 135.5851445 402.2892457000001 137.01513720000003 C 402.5658570000001 138.76178030000003 402.8436891000001 142.37689260000002 402.8121949000001 144.12811330000002 C 402.45013440000014 164.2887578 393.22088630000013 209.00128220000002 423.2177125000001 212.24444630000002 C 443.97161870000014 214.48834280000003 467.97528090000014 210.09179740000002 489.0629273000001 212.8156743 L 562.7384644000001 283.11816450000003 C 562.6090699000001 288.0871586 559.8292847000001 292.78314250000005 560.0082398000001 297.86279340000004 C 560.4633179000001 310.77441450000003 570.5714722 323.65100140000004 583.7233277 325.15283250000005 C 630.1671754 330.45629930000007 625.5260621 258.6300054000001 578.7833863000001 269.27441450000003 C 551.7514039000001 244.27648970000004 525.5653687 218.37078900000003 499.60809330000006 192.30407760000003 C 497.62640380000005 190.85022020000002 495.3458863000001 190.37591600000002 492.9567261000001 190.10382130000002 C 479.93621830000006 188.6209722 460.1268921000001 189.84466600000002 446.42059330000006 190.0571294 C 437.99456790000005 190.1877446 424.84783940000005 195.5662236 423.7225953000001 182.95898490000002 C 422.23260510000006 166.2665411 424.8854371000001 147.3180547 423.8336793000001 130.38342340000003 L 445.9125367000001 127.00720270000002 L 445.9125367000001 151.91339170000003 C 445.9125367000001 152.29022280000004 448.4628297000001 157.89776670000003 449.0001832000001 158.78833070000005 C 451.6923219000001 163.24939030000004 457.0770875000001 166.83966130000005 462.2265016000001 167.70086730000006 C 483.64544690000014 171.28308170000005 513.0077516000001 165.29003970000005 535.0468141000001 167.93872130000005 C 537.6100465000001 168.24682680000006 539.3346559000001 169.03442440000006 541.4772340000001 170.36370910000005 L 595.864441 219.93988100000004 C 584.2482301 249.90905820000003 624.7911988000001 274.84350650000005 644.6334840000001 248.79559390000003 C 662.5177613000001 225.31836000000004 638.3551637 194.18695130000003 610.8751832 203.9702765 L 557.1393434 154.70202700000002 C 553.8244020000001 152.285279 542.9879762 145.8251959 539.4496461 145.8251959 L 468.051941 145.8251959 C 468.411316 144.73822080000002 466.9450074 143.4237677 466.9450074 143.0578619 L 466.9450074 125.9002691 L 466.9462281 125.900147 C 565.1464234 117.57403620000001 667.1227418 155.3753667 718.0011597 242.9027105 C 731.4762574 266.0844732 742.1798706 292.99127250000004 745.8839722 319.6143804 C 730.6217652 314.6190191 714.5109253 307.8589483 698.5480347 305.5264287 C 663.2599488000001 300.3701787 638.2345581 319.0314336 614.1520386 342.2899175 C 612.9586792 343.4421392 611.5665894 344.2345586 611.9606324 346.1756597 C 636.2848512 344.93457079999996 659.036316 328.61114549999996 683.3346558000001 330.70117239999996 C 704.1554566000001 332.49206599999997 726.3063355 349.0554815 746.8717652 354.0594488 C 746.1491090000001 365.6307379 741.2526246 375.512879 742.8600464 387.405335 C 745.7174683 408.5466924 792.9581909 462.12164359999997 807.2335816 482.4309087 C 810.2814331999999 486.76678519999996 819.5143433 498.6121831 812.2584839 502.7600713 Z M 654.8175659 616.4642334 C 667.8278197999999 612.666687 669.8488159 638.5429688 653.9616089 633.4921265 C 645.572937 630.8250733 648.1500854999999 618.4104004000001 654.8175659 616.4642334 Z M 399.749939 266.2462158 C 386.4450074 270.2203369 382.9430542 252.41607660000003 393.5844117 250.09552000000002 C 406.2853394 247.32574460000004 408.0704957 263.7608642 399.749939 266.2462158 Z M 310.5429077 316.520752 C 322.86273189999997 312.7964478 326.31073 329.2359009 316.4620972 332.4003296 C 304.7445679 336.16516110000003 301.5175171 319.24908450000004 310.5429077 316.520752 Z M 585.0748901 288.8543091 C 597.6232299 286.01013190000003 600.7243041999999 300.9900513 592.8583374 304.385376 C 579.5494995 310.1300049 575.1339722 291.10748290000004 585.0748901 288.8543091 Z M 620.5153198 222.3949585 C 632.3727417 219.953064 635.2804565 238.9174194 622.2999878 239.5873413 C 612.0792847 240.11480709999998 610.2941284000001 224.49981689999998 620.5153198 222.3949585 Z M 714.90448 401.9985962 C 713.923523 395.7473145 727.3502808000001 360.6552124 718.6847534000001 358.4578247 L 638.5221557000001 389.3638916 C 650.9913940000001 398.96765139999997 667.4362182000001 407.2102661 682.7872924000001 410.9487305 C 692.8478393 413.39892580000003 699.6432494000001 411.94439700000004 708.2711791 418.6728516 C 713.0197143 422.3760987 719.7477416 430.7579346 724.2555541 433.682312 C 725.2438353 434.3233032 727.4581908 435.42315670000005 728.1774291 434.73065180000003 C 728.9777221 433.96032710000003 722.0070189 416.2446289 720.9718627000001 413.72076410000005 C 719.6954955000001 410.60882560000005 715.2482299000001 404.18835440000004 714.9044799000001 401.99859610000004 Z M 694.9674683 398.2034912 L 671.7345581 391.0178833 C 674.7467651 389.3157959 690.0319214 382.3335571 692.1325072999999 382.76031489999997 C 694.4362182 383.2283935 695.0870970999999 395.6395874 694.9674682 398.2034912 Z M 432.3859253 364.2018433 C 414.8768921 366.2943116 396.4755249 379.6765747 387.4650269 394.55291750000004 C 353.1481324 451.2095947 413.3099976 519.1326294 473.4498902 488.28631590000003 C 537.5932007 455.38665770000006 510.0099488 354.9249267 432.3859254 364.20184320000004 Z M 469.132019 448.5463867 C 446.8275756 477.0195923 403.86346430000003 453.9098511 412.7694702 420.9650879 C 415.6903686 410.1598511 426.5258179 399.0477905 437.899353 397.388916 L 437.8995971 397.388916 C 466.4652709 393.2225952 487.0245971 425.7050781 469.132019 448.54638669999997 Z" stroke-linecap="round" />
</g>
</g>
</g>
<g transform="matrix(1.9211538461538462 0 0 1.9211538461538462 642.5488908653845 717.2898609280124)" id="text-logo"  >
<g style=""  paint-order="stroke"   >
		<g transform="matrix(1 0 0 1 0 0)" id="text-logo-path-0"  >
<path style="stroke: none; stroke-width: 0; stroke-dasharray: none; stroke-linecap: butt; stroke-dashoffset: 0; stroke-linejoin: miter; stroke-miterlimit: 4; fill: rgb(1,29,73); fill-rule: nonzero; opacity: 1;"  paint-order="stroke"  transform=" translate(-219.63, 21.35)" d="M 33.55 -42.7 L 14.88 -7.32 L 10 -7.32 C 9.94 -7.32 9.94 -7.32 9.94 -7.38 L 9.94 -42.7 L 2.62 -42.7 L 2.62 -7.38 C 2.62 -3.23 5.86 0 10 0 L 15.13 0 C 17.81 0 20.07 -1.46 21.35 -3.9 L 41.85 -42.7 Z M 72.1 -7.32 L 52.09 -7.32 C 52.03 -7.32 52.03 -7.32 52.03 -7.38 L 52.03 -35.32 C 52.03 -35.38 52.03 -35.38 52.09 -35.38 L 72.1 -35.38 C 72.16 -35.38 72.16 -35.38 72.16 -35.32 L 72.16 -7.38 C 72.16 -7.32 72.16 -7.32 72.1 -7.32 Z M 52.09 0 L 72.1 0 C 76.25 0 79.48 -3.23 79.48 -7.38 L 79.48 -35.32 C 79.48 -39.47 76.25 -42.7 72.1 -42.7 L 52.09 -42.7 C 47.95 -42.7 44.71 -39.47 44.71 -35.32 L 44.71 -7.38 C 44.71 -3.23 47.95 0 52.09 0 Z M 117.24 -7.32 L 93.57 -7.32 C 93.51 -7.32 93.51 -7.32 93.51 -7.38 L 93.51 -35.32 C 93.51 -35.38 93.51 -35.38 93.57 -35.38 L 117.24 -35.38 L 117.24 -42.7 L 93.57 -42.7 C 89.43 -42.7 86.19 -39.47 86.19 -35.32 L 86.19 -7.38 C 86.19 -3.23 89.43 0 93.57 0 L 117.24 0 Z M 144.14 -7.32 L 128.65 -7.32 L 143.47 -35.38 L 148.35 -35.38 C 148.41 -35.38 148.41 -35.38 148.41 -35.32 L 148.41 0 L 155.73 0 L 155.73 -35.32 C 155.73 -39.47 152.5 -42.7 148.35 -42.7 L 143.23 -42.7 C 140.54 -42.7 138.29 -41.24 137.01 -38.8 L 120.47 -7.44 C 118.58 -3.9 121.21 0 125.05 0 L 144.14 0 Z M 193.86 -7.32 L 170.19 -7.32 C 170.13 -7.32 170.13 -7.32 170.13 -7.38 L 170.13 -42.7 L 162.81 -42.7 L 162.81 -7.38 C 162.81 -3.23 166.04 0 170.19 0 L 193.86 0 Z M 243.02 -7.32 L 219.36 -7.32 C 219.3 -7.32 219.3 -7.32 219.3 -7.38 L 219.3 -35.32 C 219.3 -35.38 219.3 -35.38 219.36 -35.38 L 243.02 -35.38 L 243.02 -42.7 L 219.36 -42.7 C 215.21 -42.7 211.98 -39.47 211.98 -35.32 L 211.98 -7.38 C 211.98 -3.23 215.21 0 219.36 0 L 243.02 0 Z M 275.48 -7.32 L 255.47 -7.32 C 255.41 -7.32 255.41 -7.32 255.41 -7.38 L 255.41 -35.32 C 255.41 -35.38 255.41 -35.38 255.47 -35.38 L 275.48 -35.38 C 275.54 -35.38 275.54 -35.38 275.54 -35.32 L 275.54 -7.38 C 275.54 -7.32 275.54 -7.32 275.48 -7.32 Z M 255.47 0 L 275.48 0 C 279.62 0 282.86 -3.23 282.86 -7.38 L 282.86 -35.32 C 282.86 -39.47 279.62 -42.7 275.48 -42.7 L 255.47 -42.7 C 251.32 -42.7 248.09 -39.47 248.09 -35.32 L 248.09 -7.38 C 248.09 -3.23 251.32 0 255.47 0 Z M 296.52 0 L 296.52 -14.64 L 304.69 -14.64 L 315.06 0 L 323.97 0 L 313.6 -14.64 L 316.59 -14.64 C 320.74 -14.64 323.97 -17.87 323.97 -22.02 L 323.97 -35.32 C 323.97 -39.47 320.74 -42.7 316.59 -42.7 L 289.2 -42.7 L 289.2 -35.38 L 316.59 -35.38 C 316.65 -35.38 316.65 -35.38 316.65 -35.32 L 316.65 -22.02 C 316.65 -21.96 316.65 -21.96 316.59 -21.96 L 289.2 -21.96 L 289.2 0 Z M 327.39 -35.38 L 341.11 -35.38 L 341.11 0 L 348.43 0 L 348.43 -35.38 L 362.16 -35.38 L 362.16 -42.7 L 327.39 -42.7 Z M 397.29 -7.32 L 373.63 -7.32 C 373.56 -7.32 373.56 -7.32 373.56 -7.38 L 373.56 -35.32 C 373.56 -35.38 373.56 -35.38 373.63 -35.38 L 397.29 -35.38 L 397.29 -42.7 L 373.63 -42.7 C 369.48 -42.7 366.24 -39.47 366.24 -35.32 L 366.24 -7.38 C 366.24 -3.23 369.48 0 373.63 0 L 397.29 0 Z M 376 -17.69 L 391.25 -17.69 L 391.25 -25.01 L 376 -25.01 Z M 436.64 0 L 422.61 -22.33 L 435.42 -42.7 L 426.76 -42.7 L 418.28 -29.22 L 409.8 -42.7 L 401.14 -42.7 L 413.95 -22.33 L 399.92 0 L 408.58 0 L 418.28 -15.43 L 427.98 0 Z" stroke-linecap="round" />
</g>
</g>
</g>
</svg>